C:\Users\u0088756\Documents\documenten\software\SoftwareProjects\DC_TrackingSimulation\Data\FitMuscleFunctions\dummy_motion_RightSubtalar.mot
nRows=30
nColumns=14

name C:\Users\u0088756\Documents\documenten\software\SoftwareProjects\DC_TrackingSimulation\Data\FitMuscleFunctions\dummy_motion_RightSubtalar.mot
datacolumns 14
datarows 30
range 0.0100000000 0.3000000000
endheader
time	first_body_list	first_body_rotation	first_body_tilt	first_body_tx	first_body_ty	first_body_tz	subtalar_angle_r	ankle_angle_r	knee_angle_r	hip_flexion_r	hip_adduction_r	hip_rotation_r	mtp_angle_r
        0.0100000000	        0.0000000000	        0.0000000000	        0.0000000000	        0.0000000000	        0.0000000000	        0.0000000000	      -27.6458247145	      -39.6072216327	       -2.3719449037	      106.0677987894	       -2.3424872682	       16.5371881076	        0.0000000000	
        0.0200000000	        0.0000000000	        0.0000000000	        0.0000000000	        0.0000000000	        0.0000000000	        0.0000000000	       25.1738296178	       47.0597532181	      -93.4168929919	      109.5097829417	       -3.7125963621	       -5.6329774499	        0.0000000000	
        0.0300000000	        0.0000000000	        0.0000000000	        0.0000000000	        0.0000000000	        0.0000000000	        0.0000000000	      -14.9259640813	       48.4898055273	        4.4997544445	      117.9920036371	       29.2115434888	        3.5975016963	        0.0000000000	
        0.0400000000	        0.0000000000	        0.0000000000	        0.0000000000	        0.0000000000	        0.0000000000	        0.0000000000	       -3.2253197849	       18.4065285045	      -94.0568592357	       82.5161931093	       -4.3464008071	      -10.3467568324	        0.0000000000	
        0.0500000000	        0.0000000000	        0.0000000000	        0.0000000000	        0.0000000000	        0.0000000000	        0.0000000000	       20.5316605958	       30.0110224228	        7.7046788721	      107.4551234984	       12.7402533333	        4.2163581401	        0.0000000000	
        0.0600000000	        0.0000000000	        0.0000000000	        0.0000000000	        0.0000000000	        0.0000000000	        0.0000000000	      -29.2089605169	      -35.0630229200	      -25.6859055851	       60.5815469111	      -35.6167258887	        8.2972818828	        0.0000000000	
        0.0700000000	        0.0000000000	        0.0000000000	        0.0000000000	        0.0000000000	        0.0000000000	        0.0000000000	       -8.0420125491	       10.7749258829	      -11.2151201639	       -3.0175290881	      -29.0984152756	       32.3145261364	        0.0000000000	
        0.0800000000	        0.0000000000	        0.0000000000	        0.0000000000	        0.0000000000	        0.0000000000	        0.0000000000	        2.4214037472	       44.1447637266	      -83.0321909893	       46.1512311689	       34.9921820613	       35.2634504985	        0.0000000000	
        0.0900000000	        0.0000000000	        0.0000000000	        0.0000000000	        0.0000000000	        0.0000000000	        0.0000000000	       17.4369552425	      -30.9586458661	        7.4650569091	       58.0553238554	        5.9399240413	       35.8062250586	        0.0000000000	
        0.1000000000	        0.0000000000	        0.0000000000	        0.0000000000	        0.0000000000	        0.0000000000	        0.0000000000	      -25.2186684288	       14.4957807233	      -53.9137482953	       21.2029228907	       34.5707845428	      -34.6653377208	        0.0000000000	
        0.1100000000	        0.0000000000	        0.0000000000	        0.0000000000	        0.0000000000	        0.0000000000	        0.0000000000	       23.0806690988	       28.0497327149	        9.8079292023	       11.8437714430	       -2.0522765259	       29.6396898416	        0.0000000000	
        0.1200000000	        0.0000000000	        0.0000000000	        0.0000000000	        0.0000000000	        0.0000000000	        0.0000000000	       29.0040015666	      -25.1606426691	      -77.9963025172	      -40.8005834273	        4.4934294748	       10.2884341171	        0.0000000000	
        0.1300000000	        0.0000000000	        0.0000000000	        0.0000000000	        0.0000000000	        0.0000000000	        0.0000000000	      -19.6547716118	       12.1424656845	      -45.1442934454	       -7.4877945052	       25.4175217238	       19.2154980653	        0.0000000000	
        0.1400000000	        0.0000000000	        0.0000000000	        0.0000000000	        0.0000000000	        0.0000000000	        0.0000000000	       -3.1495997077	      -36.3403993100	       -1.6048522809	       95.8575216622	      -10.6313513712	       -9.6616620726	        0.0000000000	
        0.1500000000	        0.0000000000	        0.0000000000	        0.0000000000	        0.0000000000	        0.0000000000	        0.0000000000	       24.9497474209	        7.3174490066	      -53.7825769847	       21.4839582459	       16.2572701488	       19.3166033107	        0.0000000000	
        0.1600000000	        0.0000000000	        0.0000000000	        0.0000000000	        0.0000000000	        0.0000000000	        0.0000000000	       -8.7430331229	       25.4321108981	      -92.3453365403	       40.3173269962	      -33.0978446969	      -26.3171475277	        0.0000000000	
        0.1700000000	        0.0000000000	        0.0000000000	        0.0000000000	        0.0000000000	        0.0000000000	        0.0000000000	       28.7505381229	      -12.6105774748	      -97.6355286075	       -7.2137411512	      -22.4970024776	       25.4403788092	        0.0000000000	
        0.1800000000	        0.0000000000	        0.0000000000	        0.0000000000	        0.0000000000	        0.0000000000	        0.0000000000	      -11.4993832206	       11.6578304868	        6.3309062161	       50.7980060435	       -0.2165308245	       15.7012678955	        0.0000000000	
        0.1900000000	        0.0000000000	        0.0000000000	        0.0000000000	        0.0000000000	        0.0000000000	        0.0000000000	       25.3393512213	       13.7549604678	      -70.4229776730	      -18.1978193843	      -27.9331171689	       10.4269805005	        0.0000000000	
        0.2000000000	        0.0000000000	        0.0000000000	        0.0000000000	        0.0000000000	        0.0000000000	        0.0000000000	      -12.0409584563	       11.5410406497	      -58.2339116688	       81.1660962960	      -35.3517016975	       31.0060136037	        0.0000000000	
        0.2100000000	        0.0000000000	        0.0000000000	        0.0000000000	        0.0000000000	        0.0000000000	        0.0000000000	        1.1566854836	        9.5831231683	      -63.4526004255	      115.8204533129	       38.8376688095	       36.9437275618	        0.0000000000	
        0.2200000000	        0.0000000000	        0.0000000000	        0.0000000000	        0.0000000000	        0.0000000000	        0.0000000000	       11.9720984088	      -31.3586699712	        4.4328743983	       32.9074452406	        9.0961703486	       24.7481275796	        0.0000000000	
        0.2300000000	        0.0000000000	        0.0000000000	        0.0000000000	        0.0000000000	        0.0000000000	        0.0000000000	       27.9736375311	       15.6023471538	      -17.0231022933	      -45.9274110652	       25.1113094262	       24.4207230011	        0.0000000000	
        0.2400000000	        0.0000000000	        0.0000000000	        0.0000000000	        0.0000000000	        0.0000000000	        0.0000000000	       -9.4683049461	       31.5236130089	      -43.4182223988	       56.0165794704	       23.4417836907	       -3.8109972627	        0.0000000000	
        0.2500000000	        0.0000000000	        0.0000000000	        0.0000000000	        0.0000000000	        0.0000000000	        0.0000000000	       -9.4933748195	      -28.5005446906	      -31.5770462496	      -32.1531858468	        2.5949730551	       21.0567438947	        0.0000000000	
        0.2600000000	        0.0000000000	        0.0000000000	        0.0000000000	        0.0000000000	        0.0000000000	        0.0000000000	      -18.8590157336	      -18.9300197097	      -57.2483656035	       82.7720855188	      -29.6474146133	       11.1724677557	        0.0000000000	
        0.2700000000	        0.0000000000	        0.0000000000	        0.0000000000	        0.0000000000	        0.0000000000	        0.0000000000	       -2.2325515726	       -1.8497612507	        7.6034933604	       24.9316115676	       18.0710790514	      -10.6537863241	        0.0000000000	
        0.2800000000	        0.0000000000	        0.0000000000	        0.0000000000	        0.0000000000	        0.0000000000	        0.0000000000	       19.0991540314	      -47.7599232755	        0.9966725102	      -41.8486215986	      -22.2096661245	       24.2497773872	        0.0000000000	
        0.2900000000	        0.0000000000	        0.0000000000	        0.0000000000	        0.0000000000	        0.0000000000	        0.0000000000	        4.9185872560	       27.1003516251	      -21.1112695630	       -1.8666849779	      -32.0905012365	       39.0517586654	        0.0000000000	
        0.3000000000	        0.0000000000	        0.0000000000	        0.0000000000	        0.0000000000	        0.0000000000	        0.0000000000	       -5.6764298625	       58.4076222226	      -89.7963734744	       35.9302905990	      -35.8294492132	      -37.7266549510	        0.0000000000	
